<?xml version="1.0" standalone="no"?>
<!DOCTYPE svg PUBLIC "-//W3C//DTD SVG 20010904//EN"
 "http://www.w3.org/TR/2001/REC-SVG-20010904/DTD/svg10.dtd">
<svg version="1.0" xmlns="http://www.w3.org/2000/svg"
 width="1024.000000pt" height="1024.000000pt" viewBox="0 0 1024.000000 1024.000000"
 preserveAspectRatio="xMidYMid meet">
<metadata>
Created by potrace 1.16, written by Peter Selinger 2001-2019
</metadata>
<g transform="translate(0.000000,1024.000000) scale(0.100000,-0.100000)"
fill="#000000" stroke="none">
<path d="M5780 6981 c-251 -29 -445 -177 -519 -397 -27 -82 -44 -224 -35 -309
21 -219 141 -405 315 -488 106 -51 178 -69 309 -74 248 -11 465 63 526 179 11
21 14 77 14 250 0 239 -3 255 -51 291 -24 17 -49 20 -247 25 l-220 5 -26 -26
c-23 -24 -26 -34 -26 -102 0 -85 17 -132 53 -140 12 -3 51 -6 87 -7 l65 -3 0
-70 0 -70 -40 -13 c-52 -18 -145 -9 -202 19 -54 26 -108 89 -127 148 -53 162
-12 346 93 412 99 63 228 61 368 -6 85 -41 127 -44 173 -12 92 62 93 189 2
268 -99 87 -329 141 -512 120z"/>
<path d="M4309 6960 c-112 -6 -144 -18 -174 -64 -14 -21 -16 -90 -15 -561 0
-340 4 -544 11 -556 20 -39 65 -51 183 -50 123 2 171 17 193 61 9 17 13 80 13
198 0 132 3 172 13 172 7 0 37 -37 67 -82 201 -301 280 -368 420 -355 149 13
228 132 153 230 -44 56 -123 153 -186 228 l-58 68 49 25 c97 49 154 134 173
259 18 114 -26 246 -105 315 -109 95 -212 123 -455 120 -97 0 -224 -4 -282 -8z
m387 -286 c19 -9 42 -31 51 -48 21 -39 20 -113 -1 -154 -24 -46 -62 -62 -151
-62 l-75 0 0 140 0 140 71 0 c45 0 84 -6 105 -16z"/>
<path d="M3664 6938 c-24 -5 -52 -21 -70 -39 l-29 -30 -5 -397 c-5 -432 -4
-422 -64 -458 -37 -22 -117 -22 -149 -1 -55 36 -57 54 -57 449 0 345 -1 365
-20 396 -28 46 -59 55 -172 49 -113 -6 -161 -25 -195 -76 -23 -34 -23 -38 -23
-365 0 -182 5 -370 10 -416 19 -153 91 -265 210 -324 82 -41 137 -51 280 -50
148 1 244 20 342 70 68 34 154 117 184 176 50 99 53 131 54 556 1 375 0 397
-18 421 -10 14 -30 32 -43 39 -27 14 -169 14 -235 0z"/>
<path d="M6610 6929 c-19 -4 -45 -19 -57 -34 l-23 -26 0 -537 c0 -576 -1 -566
52 -605 25 -19 59 -23 353 -41 302 -18 329 -18 360 -3 49 23 67 66 67 154 0
126 -19 138 -232 148 -74 3 -150 8 -167 12 l-33 5 0 89 0 90 48 -5 c118 -13
251 -16 275 -7 45 17 62 56 62 143 0 70 -3 80 -25 103 -24 24 -35 26 -193 37
l-167 12 0 79 0 80 73 -6 c280 -24 307 -21 340 43 22 43 18 146 -7 185 -34 51
-45 53 -336 70 -151 8 -293 16 -315 18 -22 2 -56 0 -75 -4z"/>
<path d="M7570 6859 c-19 -4 -45 -19 -57 -34 l-23 -26 0 -538 0 -538 23 -34
c31 -46 79 -60 215 -62 113 -2 114 -2 138 26 24 28 24 32 24 213 0 101 3 184
8 184 17 -1 34 -22 107 -145 110 -185 147 -236 205 -288 117 -106 296 -103
349 5 35 72 30 93 -45 188 -55 70 -206 282 -202 284 2 1 21 10 44 20 126 55
193 204 164 366 -29 163 -154 277 -355 324 -92 21 -551 64 -595 55z m490 -317
c19 -9 45 -33 58 -52 20 -29 23 -44 19 -86 -10 -99 -55 -130 -173 -119 l-74 7
0 140 0 141 68 -7 c37 -4 83 -15 102 -24z"/>
<path d="M2215 6818 c-264 -35 -399 -58 -421 -73 -14 -9 -34 -30 -44 -48 -19
-31 -20 -54 -20 -548 0 -352 4 -526 11 -548 13 -37 53 -61 103 -61 36 0 385
41 511 60 138 21 264 72 333 135 120 108 142 321 45 434 -36 43 -117 91 -153
91 -32 0 -24 13 26 39 90 48 138 135 138 248 -1 130 -62 215 -190 263 -61 22
-206 26 -339 8z m93 -269 c68 -24 76 -133 13 -179 -30 -20 -109 -40 -163 -40
l-29 0 3 108 3 107 55 6 c30 3 62 6 71 7 9 1 30 -3 47 -9z m33 -455 c60 -31
73 -120 27 -179 -29 -37 -68 -52 -160 -60 l-78 -7 0 125 0 126 58 4 c31 2 72
4 90 5 18 1 47 -5 63 -14z"/>
<path d="M4324 5531 c-72 -9 -121 -35 -146 -77 -16 -28 -18 -72 -20 -505 l-3
-474 -25 -45 c-31 -56 -76 -80 -150 -80 -69 0 -111 24 -142 82 -23 43 -23 44
-25 518 -3 441 -4 477 -21 500 -32 44 -78 60 -173 60 -156 0 -246 -28 -286
-89 l-23 -34 0 -471 c0 -517 4 -554 60 -674 64 -136 217 -246 390 -278 118
-23 355 -15 458 15 220 64 352 188 409 383 23 79 23 87 23 577 0 468 -1 498
-19 527 -10 17 -35 38 -54 48 -42 20 -165 28 -253 17z"/>
<path d="M4902 5512 c-18 -10 -42 -31 -52 -48 -19 -28 -20 -52 -20 -694 0
-755 -4 -715 80 -757 44 -23 49 -23 435 -23 362 0 393 2 432 19 63 29 87 82
88 191 0 105 -23 153 -83 170 -20 5 -130 10 -244 10 l-208 0 -1 85 c-1 47 -1
97 -2 113 l-1 27 190 0 c212 0 239 7 271 68 24 46 24 180 -1 225 -29 55 -60
62 -276 62 l-191 0 2 95 2 95 211 0 c238 0 263 6 301 70 16 28 20 52 19 115
-1 90 -15 127 -64 169 l-32 26 -411 0 c-374 -1 -415 -2 -445 -18z"/>
<path d="M6061 5503 c-19 -11 -43 -35 -53 -54 -17 -32 -18 -69 -16 -706 3
-665 3 -672 24 -700 49 -65 49 -65 493 -84 378 -16 408 -16 435 -1 60 35 85
95 86 207 0 40 -6 72 -19 95 -34 65 -43 67 -296 82 l-230 13 -3 113 -3 114
194 -7 c217 -8 242 -3 273 57 25 49 30 149 10 202 -29 76 -31 77 -253 87 -109
5 -204 12 -211 14 -16 6 -13 191 3 188 6 -1 102 -5 215 -8 183 -7 209 -6 239
9 94 49 96 280 3 342 -28 19 -228 33 -677 49 -166 6 -183 5 -214 -12z"/>
<path d="M7245 5465 c-22 -8 -41 -15 -42 -15 -1 0 -11 -15 -22 -34 -21 -33
-21 -42 -21 -723 l0 -690 23 -33 c38 -58 72 -70 222 -82 124 -10 139 -9 177 8
66 30 68 40 68 385 l0 302 93 -136 c50 -75 160 -236 242 -358 83 -122 166
-238 186 -259 63 -65 187 -110 303 -110 63 0 101 24 114 73 5 18 7 345 5 742
-5 684 -5 711 -24 742 -32 51 -105 80 -240 94 -133 14 -176 6 -213 -44 -20
-27 -21 -39 -21 -333 0 -167 -2 -304 -5 -303 -3 0 -44 60 -91 132 -159 243
-372 534 -424 580 -37 33 -92 56 -156 67 -85 13 -126 12 -174 -5z"/>
<path d="M2313 5445 c-300 -52 -535 -234 -644 -498 -49 -119 -64 -212 -63
-397 1 -194 14 -259 79 -395 75 -156 188 -256 350 -310 92 -31 238 -42 339
-27 l69 11 61 -48 c96 -76 168 -118 253 -148 70 -24 92 -27 213 -27 114 0 144
3 194 22 167 62 261 214 208 336 -16 35 -30 50 -56 61 -48 20 -63 19 -137 -11
-82 -33 -156 -35 -223 -5 l-49 21 56 58 c100 100 151 196 191 353 59 231 39
465 -55 657 -132 270 -440 406 -786 347z m192 -434 c85 -38 136 -132 155 -286
26 -206 -42 -394 -165 -457 -43 -23 -143 -34 -200 -24 -197 37 -249 503 -79
705 63 75 198 104 289 62z"/>
<path d="M1385 2981 c-15 -108 18 -273 80 -409 237 -511 929 -886 2019 -1091
533 -101 1013 -145 1596 -146 561 0 983 29 1450 101 1275 196 2097 636 2294
1226 32 96 49 227 41 307 l-7 65 -18 -53 c-68 -192 -261 -388 -525 -534 -563
-311 -1475 -487 -2734 -528 -1237 -41 -2421 78 -3156 318 -555 181 -907 440
-1015 747 l-18 49 -7 -52z"/>
</g>
</svg>
